{
    "asset" : {
        "generator" : "Khronos glTF Blender I/O v1.6.16",
        "version" : "2.0"
    },
    "extensionsUsed" : [
        "KHR_lights_punctual"
    ],
    "extensionsRequired" : [
        "KHR_lights_punctual"
    ],
    "extensions" : {
        "KHR_lights_punctual" : {
            "lights" : [
                {
                    "color" : [
                        1,
                        0.5045524835586548,
                        0.08070939034223557
                    ],
                    "intensity" : 10,
                    "type" : "point",
                    "range" : 0.5,
                    "name" : "Point"
                }
            ]
        }
    },
    "scene" : 0,
    "scenes" : [
        {
            "name" : "Scene",
            "nodes" : [
                0,
                1,
                3
            ]
        }
    ],
    "nodes" : [
        {
            "name" : "Camera",
            "rotation" : [
                0.483536034822464,
                0.33687159419059753,
                -0.20870360732078552,
                0.7804827094078064
            ],
            "translation" : [
                7.358891487121582,
                4.958309173583984,
                6.925790786743164
            ]
        },
        {
            "mesh" : 0,
            "name" : "Sphere",
            "scale" : [
                0.45246627926826477,
                0.4131101965904236,
                0.45246627926826477
            ],
            "translation" : [
                0.0008605839684605598,
                0.32726988196372986,
                0.0009526105714030564
            ]
        },
        {
            "extensions" : {
                "KHR_lights_punctual" : {
                    "light" : 0
                }
            },
            "name" : "Point_Orientation",
            "rotation" : [
                -0.7071067690849304,
                0,
                0,
                0.7071067690849304
            ]
        },
        {
            "children" : [
                2
            ],
            "name" : "Point",
            "translation" : [
                0.0014037787914276123,
                0.2697867751121521,
                0.0002517402172088623
            ]
        }
    ],
    "materials" : [
        {
            "doubleSided" : true,
            "name" : "Standard Flat",
            "pbrMetallicRoughness" : {
                "baseColorTexture" : {
                    "index" : 0
                },
                "metallicFactor" : 0
            }
        }
    ],
    "meshes" : [
        {
            "name" : "Sphere",
            "primitives" : [
                {
                    "attributes" : {
                        "POSITION" : 0,
                        "NORMAL" : 1,
                        "TEXCOORD_0" : 2
                    },
                    "indices" : 3,
                    "material" : 0
                }
            ]
        }
    ],
    "textures" : [
        {
            "sampler" : 0,
            "source" : 0
        }
    ],
    "images" : [
        {
            "bufferView" : 4,
            "mimeType" : "image/png",
            "name" : "apollo-1x"
        }
    ],
    "accessors" : [
        {
            "bufferView" : 0,
            "componentType" : 5126,
            "count" : 1180,
            "max" : [
                1.0013666152954102,
                1.2213636636734009,
                0.973567545413971
            ],
            "min" : [
                -1.0279784202575684,
                -0.7894883155822754,
                -1.001094937324524
            ],
            "type" : "VEC3"
        },
        {
            "bufferView" : 1,
            "componentType" : 5126,
            "count" : 1180,
            "type" : "VEC3"
        },
        {
            "bufferView" : 2,
            "componentType" : 5126,
            "count" : 1180,
            "type" : "VEC2"
        },
        {
            "bufferView" : 3,
            "componentType" : 5123,
            "count" : 1620,
            "type" : "SCALAR"
        }
    ],
    "bufferViews" : [
        {
            "buffer" : 0,
            "byteLength" : 14160,
            "byteOffset" : 0
        },
        {
            "buffer" : 0,
            "byteLength" : 14160,
            "byteOffset" : 14160
        },
        {
            "buffer" : 0,
            "byteLength" : 9440,
            "byteOffset" : 28320
        },
        {
            "buffer" : 0,
            "byteLength" : 3240,
            "byteOffset" : 37760
        },
        {
            "buffer" : 0,
            "byteLength" : 283,
            "byteOffset" : 41000
        }
    ],
    "samplers" : [
        {
            "magFilter" : 9728,
            "minFilter" : 9984
        }
    ],
    "buffers" : [
        {
            "byteLength" : 41284,
            "uri" : "data:application/octet-stream;base64,"
        }
    ]
}
